<svg width="444" height="81" viewBox="0 0 444 81" fill="none" xmlns="http://www.w3.org/2000/svg">
<path fill-rule="evenodd" clip-rule="evenodd" d="M278.671 19.9871L276.366 31.157L270.643 58.7934H257.059L262.782 31.157H256L258.31 19.9829L278.671 19.9871ZM268.583 12.7412C266.228 10.0466 266.947 5.42368 270.181 2.42174C273.414 -0.580198 277.948 -0.824395 280.315 1.8744C282.682 4.5732 281.95 9.1961 278.716 12.198C275.483 15.2 270.941 15.4442 268.583 12.7412ZM155.544 58.8147L160.76 33.5319C162.473 25.3134 158.414 20.0042 150.43 20.0042H147.61C143.452 20.0042 140.01 21.9325 137.635 26.4038C136.352 22.383 132.766 20.0042 127.452 20.0042H124.636C123.175 19.9621 121.722 20.2373 120.371 20.8118C119.02 21.3863 117.802 22.2473 116.795 23.3387L115.045 20.0042H104.008L96 58.8147H109.588L114.808 33.5319C115.217 31.5488 115.606 31.1783 117.535 31.1783H122.44C124.37 31.1783 124.607 31.5446 124.198 33.5319L118.978 58.8147H132.578L137.795 33.5319V33.4813C138.199 31.5446 138.6 31.1783 140.513 31.1783H145.418C147.344 31.1783 147.581 31.5446 147.172 33.5319L141.956 58.8147H155.544ZM320.635 26.4038C320.635 26.4038 320.795 33.515 320.795 33.5319L315.578 58.8147H301.978L307.198 33.5319C307.607 31.5446 307.37 31.1783 305.44 31.1783H300.535C298.606 31.1783 298.217 31.5488 297.808 33.5319L292.588 58.8147H279L287.008 20.0042H298.045L299.795 23.3387C300.802 22.2473 302.02 21.3863 303.371 20.8118C304.722 20.2373 306.175 19.9621 307.636 20.0042H310.452C315.766 20.0042 319.352 22.383 320.635 26.4038ZM204.384 33.5277L201.96 45.2828C200.263 53.5013 194.009 58.8105 186.017 58.8105H175.723C167.744 58.8105 163.685 53.4971 165.381 45.2786L167.805 33.5277C169.498 25.3092 175.752 20 183.748 20H194.058C202.021 20 206.084 25.3092 204.384 33.5277ZM190.783 33.5277C191.192 31.5404 190.955 31.1741 189.03 31.1741H184.124C182.195 31.1741 181.806 31.5446 181.397 33.5277L178.969 45.2786C178.56 47.2659 178.802 47.6322 180.727 47.6322H185.633C187.558 47.6322 187.95 47.2617 188.359 45.2786L190.783 33.5277ZM366.384 33.5277L363.96 45.2828C363.525 47.3895 362.79 49.305 361.804 50.9889L359.93 65.229C360.033 65.8275 360.082 66.4352 360.075 67.0452L360.126 69.8613C360.221 75.1746 357.907 78.8019 353.91 80.1577C353.91 80.1577 346.803 80.445 346.786 80.4453L321.414 75.6848L321.169 62.0866L346.542 66.8512C348.536 67.2242 348.898 66.9805 348.863 65.0513L348.775 60.1467C348.765 59.5756 348.724 59.1401 348.621 58.8003C348.421 58.8071 348.219 58.8105 348.017 58.8105H337.724C329.744 58.8105 325.685 53.4971 327.381 45.2786L329.805 33.5277C331.498 25.3092 337.752 20 345.748 20H356.058C364.021 20 368.084 25.3092 366.384 33.5277ZM354.008 58.809L353.496 57.9041C352.923 58.1041 352.334 58.2723 351.731 58.4075L354.008 58.809ZM352.783 33.5277C353.192 31.5404 352.955 31.1741 351.03 31.1741H346.124C344.195 31.1741 343.806 31.5446 343.398 33.5277L340.969 45.2786C340.561 47.2659 340.802 47.6322 342.727 47.6322H347.633C349.558 47.6322 349.95 47.2617 350.359 45.2786L352.783 33.5277ZM53.9765 5.69231H36.7338L22.3894 76H39.6321L53.9765 5.69231ZM62.0337 5.69231H79.2764L68.1002 60.7798H50.8533L62.0337 5.69231ZM28.4231 5.69231H11.1804L0 60.7798H17.2468L28.4231 5.69231ZM256.282 20L231.088 58.8105H217.19L208 20H222.884L226.886 45.4849L241.398 20.0211L256.282 20Z" fill="white"/>
<path d="M382.989 52.5891C382.237 56.231 379.444 59.1824 375.222 59.1824C370.999 59.1824 369.429 56.2352 370.181 52.5891C370.934 48.943 373.726 46 377.948 46C382.171 46 383.729 48.943 382.989 52.5891Z" fill="#4CD62B"/>
<path d="M430.743 25.3315L426.68 45.0231C426.271 47.0103 426.508 47.3766 428.433 47.3766H436.883L434.577 58.5549H423.422C415.442 58.5549 411.379 53.2415 413.075 45.0231L417.138 25.3315H412L414.306 14.1532H419.456L421.345 5H434.945L433.057 14.1532H443.751L441.433 25.3315H430.743Z" fill="white"/>
<path d="M408.671 19.9871L406.366 31.157L400.643 58.7934H387.059L392.782 31.157H386L388.31 19.9829L408.671 19.9871ZM398.583 12.7412C396.228 10.0466 396.947 5.42368 400.181 2.42174C403.414 -0.580198 407.948 -0.824395 410.315 1.8744C412.682 4.5732 411.95 9.1961 408.716 12.198C405.483 15.2 400.941 15.4442 398.583 12.7412Z" fill="white"/>
<path d="M366.5 34L348.5 68L360 74L366.5 34Z" fill="white"/>
</svg>
